<svg width="76" height="46" viewBox="0 0 76 46" fill="none" xmlns="http://www.w3.org/2000/svg">
<path d="M37.9306 0.444336C27.8707 0.444336 21.5833 5.47428 19.0683 15.5342C22.8408 10.5042 27.242 8.61799 32.2719 9.87548C35.1418 10.5929 37.193 12.6749 39.4635 14.9796C43.1622 18.7339 47.4429 23.0791 56.7929 23.0791C66.8528 23.0791 73.1402 18.0491 75.6552 7.98925C71.8827 13.0192 67.4815 14.9054 62.4516 13.6479C59.5817 12.9305 57.5305 10.8485 55.26 8.5438C51.5614 4.78951 47.2806 0.444336 37.9306 0.444336ZM19.0683 23.0791C9.00845 23.0791 2.72103 28.109 0.206055 38.1689C3.97851 33.139 8.37971 31.2527 13.4097 32.5102C16.2795 33.2277 18.3308 35.3097 20.6012 37.6144C24.2999 41.3686 28.5807 45.7138 37.9306 45.7138C47.9905 45.7138 54.2779 40.6839 56.7929 30.624C53.0205 35.6539 48.6193 37.5402 43.5893 36.2827C40.7194 35.5652 38.6682 33.4832 36.3978 31.1785C32.6991 27.4243 28.4183 23.0791 19.0683 23.0791Z" fill="white"/>
</svg>
