<svg width="56" height="56" viewBox="0 0 56 56" fill="none" xmlns="http://www.w3.org/2000/svg">
<g clip-path="url(#clip0_166_144)">
<path d="M42.6477 0.297363H13.1753C5.99427 0.297363 0.172852 6.11878 0.172852 13.2999V42.7722C0.172852 49.9533 5.99427 55.7747 13.1753 55.7747H42.6477C49.8287 55.7747 55.6502 49.9533 55.6502 42.7722V13.2999C55.6502 6.11878 49.8287 0.297363 42.6477 0.297363Z" fill="#242938"/>
<mask id="mask0_166_144" style="mask-type:luminance" maskUnits="userSpaceOnUse" x="13" y="6" width="30" height="44">
<path d="M42.2928 6.36523H13.3926V49.7069H42.2928V6.36523Z" fill="white"/>
</mask>
<g mask="url(#mask0_166_144)">
<path d="M20.6211 49.7066C24.6086 49.7066 27.8447 46.4705 27.8447 42.483V35.2593H20.6211C16.6337 35.2593 13.3975 38.4956 13.3975 42.483C13.3975 46.4705 16.6337 49.7066 20.6211 49.7066Z" fill="#0ACF83"/>
<path d="M13.3975 28.0361C13.3975 24.0487 16.6337 20.8125 20.6211 20.8125H27.8447V35.2596H20.6211C16.6337 35.2596 13.3975 32.0235 13.3975 28.0361Z" fill="#A259FF"/>
<path d="M13.3975 13.5886C13.3975 9.60116 16.6337 6.36499 20.6211 6.36499H27.8447V20.8122H20.6211C16.6337 20.8122 13.3975 17.576 13.3975 13.5886Z" fill="#F24E1E"/>
<path d="M27.8457 6.36499H35.0692C39.0567 6.36499 42.293 9.60116 42.293 13.5886C42.293 17.576 39.0567 20.8122 35.0692 20.8122H27.8457V6.36499Z" fill="#FF7262"/>
<path d="M42.293 28.0361C42.293 32.0235 39.0567 35.2596 35.0692 35.2596C31.0818 35.2596 27.8457 32.0235 27.8457 28.0361C27.8457 24.0487 31.0818 20.8125 35.0692 20.8125C39.0567 20.8125 42.293 24.0487 42.293 28.0361Z" fill="#1ABCFE"/>
</g>
</g>
<defs>
<clipPath id="clip0_166_144">
<rect width="55.4773" height="55.4773" fill="white" transform="translate(0.172852 0.297363)"/>
</clipPath>
</defs>
</svg>
