<svg width="70" height="70" viewBox="0 0 70 70" fill="none" xmlns="http://www.w3.org/2000/svg">
<path d="M60.1562 7.65625H9.84375C8.63379 7.65625 7.65625 8.63379 7.65625 9.84375V60.1562C7.65625 61.3662 8.63379 62.3438 9.84375 62.3438H60.1562C61.3662 62.3438 62.3438 61.3662 62.3438 60.1562V9.84375C62.3438 8.63379 61.3662 7.65625 60.1562 7.65625ZM35.0752 35.417L21.9502 46.4229C21.5947 46.7236 21.0547 46.4707 21.0547 46.0059V41.7197C21.0547 41.5625 21.1299 41.4053 21.2529 41.3027L28.7588 35L21.2529 28.6973C21.1901 28.6476 21.1395 28.5842 21.1052 28.5119C21.0708 28.4396 21.0535 28.3603 21.0547 28.2803V23.9941C21.0547 23.5293 21.5947 23.2764 21.9502 23.5771L35.0752 34.5762C35.3418 34.7949 35.3418 35.1982 35.0752 35.417ZM48.9453 46.0059C48.9453 46.3066 48.7129 46.5527 48.4326 46.5527H35.7861C35.5059 46.5527 35.2734 46.3066 35.2734 46.0059V42.7246C35.2734 42.4238 35.5059 42.1777 35.7861 42.1777H48.4326C48.7129 42.1777 48.9453 42.4238 48.9453 42.7246V46.0059Z" fill="#F3F3F3"/>
</svg>
