<svg width="45" height="45" viewBox="0 0 45 45" fill="none" xmlns="http://www.w3.org/2000/svg">
<g clip-path="url(#clip0_320_765)">
<mask id="mask0_320_765" style="mask-type:luminance" maskUnits="userSpaceOnUse" x="2" y="2" width="42" height="42">
<path d="M2 2H43.375V43.375H2V2Z" fill="white"/>
</mask>
<g mask="url(#mask0_320_765)">
<path d="M26.5855 2.30406L25.3442 2.12985C21.6138 1.59123 17.8071 2.12409 14.3679 3.66631C10.9288 5.20853 7.99886 7.69657 5.91974 10.8404C3.7076 13.8455 2.38889 17.4141 2.11537 21.1355C1.84185 24.857 2.62462 28.5801 4.37362 31.8763C4.55261 32.2067 4.66405 32.5693 4.70144 32.9432C4.73883 33.3171 4.70141 33.6947 4.59138 34.0539C3.69855 37.1244 2.87105 40.2166 2 43.4613L3.08882 43.1347C6.02862 42.3507 8.96842 41.5668 11.9082 40.8481C12.5287 40.7191 13.1737 40.7798 13.7592 41.0224C16.3968 42.3096 19.2791 43.0178 22.2129 43.0994C25.1466 43.1809 28.0639 42.6341 30.7689 41.4954C33.4739 40.3567 35.9041 38.6526 37.8963 36.4975C39.8885 34.3423 41.3967 31.786 42.3196 29C43.2425 26.2139 43.5588 23.2628 43.2473 20.3444C42.9358 17.4261 42.0037 14.6082 40.5135 12.0798C39.0233 9.55137 37.0095 7.37096 34.6072 5.68488C32.205 3.99881 29.4699 2.84608 26.5855 2.30406ZM32.0731 30.8746C31.2816 31.5832 30.3165 32.0693 29.2761 32.2835C28.2356 32.4978 27.1569 32.4324 26.1499 32.0941C21.5868 30.8092 17.628 27.9462 14.9787 24.015C13.9667 22.6247 13.1532 21.1002 12.5615 19.4856C12.2411 18.5487 12.1833 17.542 12.3944 16.5746C12.6056 15.6072 13.0776 14.7161 13.7592 13.9979C14.0911 13.5744 14.5427 13.2607 15.0555 13.0975C15.5682 12.9344 16.1181 12.9294 16.6337 13.0833C17.0692 13.1922 17.3741 13.8237 17.7661 14.3028C18.084 15.2022 18.4564 16.0819 18.8766 16.9377C19.1955 17.3744 19.3287 17.9194 19.2471 18.4539C19.1655 18.9884 18.8757 19.4688 18.4411 19.7904C17.4612 20.6615 17.6136 21.3801 18.3105 22.36C19.851 24.5794 21.9767 26.3282 24.4514 27.4121C25.1482 27.717 25.6709 27.7823 26.1282 27.0637C26.3241 26.7806 26.5855 26.5411 26.8032 26.2798C28.0662 24.6901 27.6743 24.7119 29.6777 25.5829C30.3157 25.8508 30.9342 26.1644 31.5287 26.5193C32.1166 26.8677 33.0095 27.2379 33.1401 27.7606C33.2658 28.3276 33.2328 28.9182 33.0445 29.4676C32.8562 30.017 32.5201 30.5039 32.0731 30.8746Z" fill="white"/>
</g>
</g>
<defs>
<clipPath id="clip0_320_765">
<rect width="45" height="45" fill="white"/>
</clipPath>
</defs>
</svg>
